<svg width="160" height="196" xmlns="http://www.w3.org/2000/svg">
  <g fill-rule="evenodd">
    <path
      d="M94.3099 28.6199L148.423 136.846q.228.455.426.924.198.468.366.948.168.481.305.971.137.49.243.987.106.498.179 1.001.074.504.116 1.011.042.507.051 1.015.01.509-.013 1.017-.023.508-.078 1.014t-.142 1.007q-.087.501-.206.996t-.269.981q-.15.486-.331.962-.18.475-.391.938-.21.464-.449.913-.24.448-.507.881-.268.433-.562.848-.295.415-.615.81-.32.395-.665.77-.344.374-.712.725-.368.352-.757.68-.389.327-.799.629-.409.302-.837.578-.428.275-.872.523t-.904.467q-.459.219-.931.408-.472.189-.955.348-.484.159-.976.287-.492.128-.992.225-.499.096-1.004.161-.505.064-1.012.097-.508.032-1.017.032H25.8869q-.5087 0-1.0164-.032-.5078-.033-1.0124-.097-.5047-.065-1.0042-.161-.4995-.097-.9919-.225t-.9756-.287q-.4833-.159-.9555-.348-.4722-.189-.9314-.408-.4592-.219-.9035-.467-.4444-.248-.8721-.523-.4277-.276-.8371-.578-.4093-.302-.7986-.629-.3894-.328-.7571-.68-.3677-.351-.7124-.725-.3447-.375-.6648-.77-.3202-.395-.6146-.81-.2945-.415-.5619-.848-.2675-.433-.5069-.881-.2395-.449-.4499-.913-.2104-.463-.391-.938-.1806-.476-.3306-.962-.1499-.486-.2687-.981-.1188-.495-.206-.996-.0871-.501-.14222-1.007-.05511-.506-.07798-1.014-.02287-.508-.0134-1.017.00947-.508.05123-1.015.04177-.507.11567-1.011.0739-.503.1796-1.001.1057-.497.2429-.987.1371-.49.3051-.971.168-.48.3661-.948.1982-.469.4257-.924L65.6901 28.6199q.2476-.4953.5289-.9723.2813-.477.5949-.9334.3136-.4564.6581-.89.3444-.4336.7179-.8424.3736-.4088.7746-.7908.4009-.3819.8273-.7352.4264-.3534.8762-.6764t.9208-.6141q.4711-.2911.9612-.549.49-.2579.9967-.4812.5067-.2234 1.0277-.4112.5209-.1878 1.0536-.3391.5327-.1513 1.0746-.2655.5418-.1141 1.0903-.1905.5485-.0764 1.1009-.1147.5525-.0382 1.1062-.0382.5538 0 1.1062.0382.5524.0383 1.1009.1147t1.0903.1905q.5419.1142 1.0746.2655.5327.1513 1.0536.3391.521.1878 1.0277.4112.5067.2233.9968.4812.49.2579.9611.549.471.2911.9208.6141.4498.323.8762.6764.4264.3533.8273.7352.401.382.7746.7908.3735.4088.7179.8424.3445.4336.6581.89.3136.4564.5949.9334.2813.477.5289.9723z"
      fill="#081ae1" />
    <path
      d="M44.00006 159.999756c0-19.8823 16.1177-36 36-36 19.8822 0 36 16.1177 36 36 0 19.8822-16.1178 36-36 36-19.8823 0-36-16.1178-36-36z"
      fill="#9fbdd9" fill-opacity=".49803922" />
  </g>
</svg>